<?xml version="1.0" standalone="no"?>
<!DOCTYPE svg PUBLIC "-//W3C//DTD SVG 20010904//EN"
 "http://www.w3.org/TR/2001/REC-SVG-20010904/DTD/svg10.dtd">
<svg version="1.0" xmlns="http://www.w3.org/2000/svg"
 width="340.000000pt" height="340.000000pt" viewBox="0 0 340.000000 340.000000"
 preserveAspectRatio="xMidYMid meet">
<metadata>
Created by potrace 1.14, written by Peter Selinger 2001-2017
</metadata>
<g transform="translate(0.000000,340.000000) scale(0.100000,-0.100000)"
fill="#000000" stroke="none">
<path d="M887 3389 c-102 -24 -219 -115 -261 -204 -47 -98 -46 -60 -46 -1498
l0 -1357 22 -58 c11 -31 33 -75 48 -97 34 -49 102 -111 133 -121 12 -4 24 -10
27 -15 3 -4 32 -15 65 -24 90 -23 1576 -22 1655 1 132 39 235 142 275 276 13
46 15 210 13 1428 l-3 1376 -37 75 c-55 112 -145 186 -263 218 -49 13 -1572
13 -1628 0z"/>
</g>
</svg>
