<svg version="1.0" xmlns="http://www.w3.org/2000/svg" viewBox="0 0 220.000000 200.000000"
    preserveAspectRatio="xMidYMid meet">
    <g transform="translate(0.000000,200.000000) scale(0.100000,-0.100000)" fill="currentColor" stroke="none">
        <path d="M365 1499 c201 -275 365 -503 365 -507 0 -4 -84 -120 -188 -259 -103
            -139 -263 -355 -356 -480 -93 -125 -173 -229 -178 -231 -45 -19 101 -22 992
            -22 l1000 0 0 1000 0 1000 -1000 0 -999 0 364 -501z m1310 -509 l0 -305 -312
            -3 -313 -2 0 310 0 310 313 -2 312 -3 0 -305z" />
        <path d="M1150 1194 c0 -2 -1 -95 -1 -206 l0 -203 216 -3 215 -2 0 210 0 210
            -157 0 -158 0 98 -98 c53 -53 97 -101 97 -106 0 -4 -42 -48 -92 -97 l-93 -88
            -28 26 -27 27 65 66 65 66 -100 101 c-55 55 -100 99 -100 97z" />
    </g>
</svg>
